# xmcd
#
# Track frame offsets: 
#        150
#        18317
#        42617
#        67212
#        88222
#        104857
#        133537
#        159872
#        180192
#
# Disc length: 2742 seconds
#
# Revision: 0
# Processed by: cddbd v1.5.2PL0 Copyright (c) Steve Scherf et al.
# Submitted via: ExactAudioCopy v1.0b3
#
DISCID=790ab409
DTITLE=Leata Galloway - The Naked Truth
DYEAR=1988
DGENRE=Easy Listening
TTITLE0=With Every Beat Of My Heart
TTITLE1=Fascination
TTITLE2=Shades Of Blue
TTITLE3=Heartache (Don't Discriminate)
TTITLE4=Cry Me A River
TTITLE5=One Of These Nights
TTITLE6=You'll Never Get To Heaven
TTITLE7=I'm Scared Of You
TTITLE8=The Naked Truth
EXTD=
EXTT0=
EXTT1=
EXTT2=
EXTT3=
EXTT4=
EXTT5=
EXTT6=
EXTT7=
EXTT8=
PLAYORDER=
